#!OML:ASF F:\VICON\USERDATA\INSTALL\rory3\rory3.ASF
:FULLY-SPECIFIED
:DEGREES
70
root 0.40852450995749817 21.920006687271183 0.9341303101214027 7.962540664997551 1.7709013547556613 -1.3340411592529156
lfemur -36.05207271470969 10.462123053585556 -20.37576845547564
ltibia 24.484271157981027
lfoot -2.3079976004745397 -2.985626730438258
ltoes -7.7614070972496805
rfemur -34.82198780555725 -9.802084088573503 23.282557449319178
rtibia 36.33541958227834
rfoot 11.490914102834944 -1.5428769684532175
rtoes 16.534246348192827
lowerback 5.106729429749799 -0.6453123319647375 -1.4818075872944265
upperback 6.647009358831489 -1.0284622620218682 1.1575516530787235
thorax 2.6101861597505067 -0.604311954634654 2.171342203340452
lowerneck -7.659298317308762 -0.389991181425089 -1.9045215932183965
upperneck 28.400058450329507 -0.7072227816038925 1.5352083228433537
head 10.001167512344395 -0.23006199001210836 0.8954024672955994
lclavicle 1.0928844888405243e-15 -2.2170185254969068e-15
lhumerus -40.08188529383595 -11.485657993039771 89.25907879051495
lradius 25.125870670964737
lwrist 13.335176258139352
lhand -20.736524092275694 -4.9310810904852405
lfingers 7.12502
lthumb 7.020839740817104 24.73069170976703
rclavicle 1.0938055372496297e-15 -2.2157808148066215e-15
rhumerus -24.520419030142445 -6.051911329390838 -81.21861547235834
rradius 36.65278908888583
rwrist 30.821493232931033
rhand -16.381443274711295 -24.475034840507657
rfingers 7.12502
rthumb 10.362081767878593 -54.484087235172
71
root 0.4479035388330056 20.979916988829213 2.3102118085134338 6.6232087943099005 1.3068084373377704 -1.2352432767430135
lfemur -35.85234380060688 10.038729097285554 -20.570592682043397
ltibia 18.873869070997202
lfoot -2.1736515587583414 -1.822358759369152
ltoes -12.317829680910648
rfemur -33.98962002092965 -8.033941423109892 22.159548051004204
rtibia 27.432239361756707
rfoot 12.483055400226922 -2.82575103447233
rtoes 17.161448733953193
lowerback 4.505439165585958 -0.22492021233371123 -1.1844626274113177
upperback 6.522614024831587 -0.41634903899338405 0.9878188167667149
thorax 2.8931673106759686 -0.26319818443061005 1.8874033823805711
lowerneck -7.259185071625822 -0.5447881310158412 -2.0013431353438387
upperneck 29.659440821652055 -1.00143180725264 1.8172309876809505
head 10.624928876001137 -0.3327206373476445 0.9520189439337008
lclavicle 1.0922077139338735e-15 -2.217948961317076e-15
lhumerus -42.467609945864844 -11.470593263940051 89.34703010866247
lradius 23.89067544644798
lwrist 10.173295339017095
lhand -20.00026694150146 -4.620327123475569
lfingers 7.12502
lthumb 7.781598976991468 25.184601262429606
rclavicle 1.0933941905793791e-15 -2.216293181675027e-15
rhumerus -25.4177177939932 -7.515887202594797 -81.24900465145527
rradius 34.78436591283882
rwrist 31.137684890349476
rhand -16.363658498903984 -24.398131730914347
rfingers 7.12502
rthumb 10.460679707224175 -54.371181629381354
72
root 0.49374910941148914 19.79814212487176 3.5633778738898254 5.12764449386067 0.4253171347961342 -1.526026281579934
lfemur -35.28792221755241 9.434441852963143 -19.974636300928147
ltibia 20.453274231562105
lfoot -2.3019895132772907 -0.12713868121970595
ltoes -15.858486477789905
rfemur -32.78765031813415 -6.041991543358322 21.257775000105475
rtibia 26.597239551783037
rfoot 11.504281128077016 -2.039129542820529
rtoes 16.200202864480417
lowerback 3.9130815557728424 0.30372550891676814 -0.4043079023986708
upperback 6.240547908187235 0.38690183982728565 0.984806822626238
thorax 2.656164043237259 0.1745180307069738 1.5797162206732709
lowerneck -7.256425485062962 -0.6020873247581157 -2.0750043256759265
upperneck 30.809838248963594 -1.073727347494299 1.8875899272981567
head 11.210513454106112 -0.36768547074535096 0.9636279138130203
lclavicle 1.0916816832617276e-15 -2.218593421573906e-15
lhumerus -43.09836294771155 -11.972775190437364 89.15845854122237
lradius 23.09093020953844
lwrist 7.208464104885102
lhand -19.87880911510748 -4.686569352528265
lfingers 7.12502
lthumb 7.584199298226443 25.15678892983554
rclavicle 1.0924796304333103e-15 -2.217428432651313e-15
rhumerus -25.85627729362077 -8.664661298262477 -81.15599832089913
rradius 32.54982344420509
rwrist 32.27818123721475
rhand -16.31070346309858 -24.33516740541794
rfingers 7.12502
rthumb 10.455163677056161 -54.31720734682357
73
root 0.5302484499878286 18.285151163027653 5.024775878913791 2.8647916058747347 -0.784227509741397 -1.2485723504558122
lfemur -34.31145685467212 8.975756318475211 -19.55735084452327
ltibia 30.051706054970918
lfoot -3.2934848345829284 0.938262244662889
ltoes -16.721871820511684
rfemur -32.736583408254006 -4.434047490941183 20.351709647405023
rtibia 35.34402605905808
rfoot 3.8075821390263282 2.7512171134399446
rtoes 11.864753499020367
lowerback 4.200826756514049 0.9138608857121887 -0.2700657181372996
upperback 5.7210483524567355 1.2262413843821356 0.9519173764205868
thorax 1.5626704669569658 0.5946569407817621 1.5945357392342572
lowerneck -7.7603392301942495 -0.5417244611242978 -2.083924979508597
upperneck 31.8473012008198 -0.9334765399150942 1.8918007916339876
head 11.793026918242155 -0.339275359900899 0.9696114961405923
lclavicle 1.0926808409315174e-15 -2.2172580471479188e-15
lhumerus -42.101324088110495 -11.076844515791207 87.96210637758865
lradius 22.771885884201822
lwrist 5.380448089145465
lhand -21.190550796728868 -5.5798680820844835
lfingers 7.12502
lthumb 6.011476942964812 24.48698675062026
rclavicle 1.0941977537044229e-15 -2.2152948014165836e-15
rhumerus -25.389976203747295 -9.256788849908009 -80.96898174588233
rradius 30.690823653095986
rwrist 34.14214646054439
rhand -16.498472268799926 -24.548353412871375
rfingers 7.12502
rthumb 10.236016778405284 -54.59875299569455
